<svg width="355" height="300" viewBox="0 0 355 300" fill="none" xmlns="http://www.w3.org/2000/svg">
<g filter="url(#filter0_ii_22_336)">
<path fill-rule="evenodd" clip-rule="evenodd" d="M161.9 8.91666C153.063 8.91666 145.9 16.0801 145.9 24.9166V82.0833C145.9 90.9199 153.063 98.0833 161.9 98.0833H200.1C208.936 98.0833 216.1 90.9199 216.1 82.0834V31.2083L194.433 8.91666H161.9Z" fill="#4876F9"/>
</g>
<g filter="url(#filter1_dd_22_336)">
<path d="M174.434 75.7917L180.96 51.1778H181.08L187.566 75.7917H191.209L199.417 46.2552H195.733L189.448 71.0346H189.287L182.802 46.2552H179.238L172.712 71.0346H172.552L166.267 46.2552H162.583L170.791 75.7917H174.434Z" fill="white"/>
</g>
<path d="M214.067 29.1185H196.465L216.1 49.3203V31.2083L214.067 29.1185Z" fill="url(#paint0_linear_22_336)"/>
<path d="M210.433 31.2083L216.1 31.2083L194.433 8.91666L194.433 15.2083C194.433 24.0449 201.597 31.2083 210.433 31.2083Z" fill="#B5C8FC"/>
<g filter="url(#filter2_ii_22_336)">
<path fill-rule="evenodd" clip-rule="evenodd" d="M41.95 206.833C33.1134 206.833 25.95 213.997 25.95 222.833V269.167C25.95 278.003 33.1134 285.167 41.95 285.167H72.05C80.8865 285.167 88.05 278.003 88.05 269.167V226.417L68.8833 206.833H41.95Z" fill="#8289AD"/>
</g>
<g filter="url(#filter3_dd_22_336)">
<path d="M58.6254 265.583V239.129H68.7397V236.208H45.2605V239.129H55.3747V265.583H58.6254Z" fill="white"/>
</g>
<path d="M86.2517 224.581H70.6802L88.05 242.328V226.417L86.2517 224.581Z" fill="url(#paint1_linear_22_336)"/>
<path d="M84.8834 226.417L88.05 226.417L68.8834 206.833L68.8834 210.417C68.8834 219.253 76.0468 226.417 84.8834 226.417Z" fill="#CDCFDE"/>
<g filter="url(#filter4_ii_22_336)">
<path fill-rule="evenodd" clip-rule="evenodd" d="M108.1 77.75C99.2635 77.75 92.1001 84.9134 92.1001 93.75V109.25C92.1001 118.087 99.2635 125.25 108.1 125.25H113.9C122.737 125.25 129.9 118.087 129.9 109.25V93.75C129.9 92.0392 129.632 90.3912 129.134 88.8457L119.073 78.6048C117.451 78.0507 115.71 77.75 113.9 77.75H108.1Z" fill="#32BD7A"/>
</g>
<g filter="url(#filter5_dd_22_336)">
<path d="M105.762 113.375L110.987 105.741L116.239 113.375H118.729L112.195 104.12L118.259 95.5625H115.769L110.987 102.498L106.228 95.5625H103.739L109.754 104.12L103.271 113.375H105.762Z" fill="white"/>
</g>
<path d="M128.805 88.5117L119.327 88.5117L129.9 99.2734L129.9 89.625L128.805 88.5117Z" fill="url(#paint2_linear_22_336)"/>
<path d="M118.233 77.75L118.233 77.9583C118.233 84.4017 123.457 89.625 129.9 89.625L118.233 77.75Z" fill="#EBFFEC"/>
<g filter="url(#filter6_ii_22_336)">
<path fill-rule="evenodd" clip-rule="evenodd" d="M224.562 135.5C215.726 135.5 208.562 142.663 208.562 151.5V174.5C208.562 183.337 215.726 190.5 224.562 190.5H236.438C245.274 190.5 252.438 183.337 252.438 174.5V151.5C252.438 150.671 252.375 149.857 252.253 149.063L239.116 135.723C238.245 135.576 237.35 135.5 236.438 135.5H224.562Z" fill="#FF9333"/>
</g>
<g filter="url(#filter7_dd_22_336)">
<path d="M226.83 176.75V168.315H232.748C237.392 168.315 239.742 166.264 239.742 162.191C239.742 158.147 237.42 156.125 232.776 156.125H224.508V176.75H226.83ZM232.635 166.264H226.83V158.176H232.635C234.249 158.176 235.438 158.494 236.231 159.187C237.024 159.793 237.42 160.804 237.42 162.192C237.42 163.578 237.024 164.589 236.259 165.253C235.466 165.917 234.277 166.264 232.635 166.264V166.264Z" fill="white"/>
</g>
<path d="M251.167 147.961H240.165L252.437 160.422V149.25L251.167 147.961Z" fill="url(#paint3_linear_22_336)"/>
<path d="M238.896 135.5L238.896 135.708C238.896 143.187 244.959 149.25 252.438 149.25L238.896 135.5Z" fill="#FFD3AD"/>
<g filter="url(#filter8_ii_22_336)">
<path fill-rule="evenodd" clip-rule="evenodd" d="M313.212 150.833C304.376 150.833 297.212 157.997 297.212 166.833V193.167C297.212 202.003 304.376 209.167 313.212 209.167H327.787C336.624 209.167 343.787 202.003 343.787 193.167V166.833C343.787 166.332 343.764 165.837 343.719 165.348L329.502 150.924C328.939 150.864 328.367 150.833 327.787 150.833H313.212Z" fill="#7C8EEE"/>
</g>
<g filter="url(#filter9_dd_22_336)">
<path d="M331.473 183.833L314.708 193.972C313.588 194.657 312.163 193.835 312.163 192.5V172.221C312.163 170.92 313.588 170.098 314.708 170.748L331.473 180.888C332.559 181.573 332.559 183.183 331.473 183.833H331.473Z" fill="white"/>
</g>
<path d="M342.439 164.049H330.76L343.788 177.266V165.417L342.439 164.049Z" fill="url(#paint4_linear_22_336)"/>
<path d="M329.413 150.833L329.413 151.042C329.413 158.981 335.849 165.417 343.788 165.417L329.413 150.833Z" fill="#CAD1F8"/>
<g filter="url(#filter10_ii_22_336)">
<path fill-rule="evenodd" clip-rule="evenodd" d="M42.3003 24.815L55.9944 38.7136C56.0723 39.3537 56.1124 40.0055 56.1124 40.6667V65.3333C56.1124 74.1699 48.949 81.3333 40.1125 81.3333H26.8875C18.0509 81.3333 10.8875 74.1699 10.8875 65.3333V40.6667C10.8875 31.8301 18.0509 24.6667 26.8874 24.6667H40.1124C40.8546 24.6667 41.585 24.7172 42.3003 24.815Z" fill="#FA4E4E"/>
</g>
<path d="M42.5677 62.8298C40.6837 62.6878 38.8698 61.9777 37.4045 60.6995C34.5437 61.3384 31.8222 62.2614 29.101 63.3979C26.9382 67.3033 24.9146 69.2916 23.1701 69.2916C22.8212 69.2916 22.4028 69.2207 22.1236 69.0075C21.3559 68.6527 20.9375 67.8714 20.9375 67.0904C20.9375 66.4512 21.0771 64.6761 27.7055 61.7645C29.241 58.924 30.4267 56.0128 31.4038 52.9595C30.5663 51.2553 28.7524 47.0655 30.008 44.9355C30.4267 44.1542 31.2642 43.7282 32.1715 43.7994C32.8691 43.7994 33.5667 44.1542 33.9854 44.7223C34.8927 46.0005 34.8229 48.6989 33.6364 52.6755C34.7531 54.8027 36.2157 56.7233 37.9625 58.3563C39.4281 58.0719 40.893 57.8591 42.3583 57.8591C45.6378 57.9299 46.1264 59.4921 46.0566 60.4154C46.0566 62.8298 43.7538 62.8298 42.5677 62.8298ZM23.0309 67.2321L23.2403 67.1613C24.217 66.8064 24.9844 66.0963 25.5427 65.173C24.4958 65.599 23.6587 66.3091 23.0309 67.2324V67.2321ZM32.3108 45.9297H32.1014C32.0316 45.9297 31.892 45.9297 31.8222 46.0005C31.543 47.2075 31.7524 48.4857 32.241 49.6219C32.6597 48.4149 32.6597 47.1367 32.3108 45.9297ZM32.7993 56.226L32.7295 56.3677L32.6597 56.2968C32.0316 57.9303 31.3337 59.5633 30.5663 61.1255L30.7059 61.0547V61.1964C32.2575 60.6254 33.8421 60.1511 35.4507 59.7762L35.3809 59.7053H35.5903C34.5434 58.64 33.5667 57.433 32.7993 56.226ZM42.2885 59.9894C41.6604 59.9894 41.1024 59.9894 40.4743 60.131C41.1722 60.4863 41.8701 60.6283 42.5677 60.6995C43.0562 60.7703 43.5448 60.6995 43.9632 60.5575C43.9632 60.3443 43.684 59.9894 42.2885 59.9894Z" fill="white"/>
<path d="M54.8028 37.5052L43.4626 37.5052L56.1124 50.3438V38.8333L54.8028 37.5052Z" fill="url(#paint5_linear_22_336)"/>
<path d="M42.1542 24.6667L42.1542 24.875C42.1542 32.584 48.4036 38.8333 56.1125 38.8333L42.1542 24.6667Z" fill="#FDB8B8"/>
<g filter="url(#filter11_ii_22_336)">
<path fill-rule="evenodd" clip-rule="evenodd" d="M288.625 21.75C279.788 21.75 272.625 28.9134 272.625 37.75V83.25C272.625 92.0866 279.788 99.25 288.625 99.25H317.375C326.212 99.25 333.375 92.0866 333.375 83.25V41.125L314.625 21.75H288.625Z" fill="#F16C00"/>
</g>
<path d="M318.806 60.4233C318.695 60.9951 318.476 61.5387 318.161 62.0232C317.905 62.4252 317.646 62.6945 317.385 62.5579C317.13 62.5579 316.997 60.8214 316.873 60.5521C316.675 60.0853 316.544 59.5907 316.485 59.0845C316.357 58.0159 315.969 57.0753 315.321 56.6771C314.677 56.1429 313.777 55.7408 312.613 55.471C311.349 55.2174 310.158 54.6705 309.128 53.8716C308.097 53.0676 306.937 52.4006 306.293 51.5965C305.644 50.9295 305.128 50.7925 304.872 50.9295C304.484 51.0623 304.356 51.4643 304.356 51.8658V76.7264C304.356 77.3977 304.228 78.1974 303.968 79.0015C303.712 79.8056 303.58 80.6048 302.936 81.405C302.292 82.209 301.388 82.7433 300.228 83.278C299.063 83.8128 297.647 84.0821 296.095 84.2143C294.495 84.3187 292.896 83.9963 291.451 83.278C290.208 82.6877 289.106 81.8201 288.226 80.7375C287.451 79.6685 287.062 78.5995 287.062 77.2606C287.062 76.0594 287.583 74.8572 288.742 73.7877C289.775 72.7187 290.935 71.9151 292.227 71.5131C293.515 71.111 294.679 70.8461 295.839 70.8461C297.003 70.8461 298.807 70.8461 299.711 71.1149C300.612 71.3803 301.26 71.5169 301.776 71.6496V47.9879C301.776 47.1839 302.032 46.5203 302.42 45.986C302.808 45.4513 303.452 45.1819 304.096 45.0497C304.744 44.917 305.26 45.0497 305.648 45.4517C306.036 45.7167 305.648 46.2553 306.16 46.7857C306.548 47.3205 307.065 47.9918 307.712 48.7915C308.356 49.5956 309.128 50.2626 310.161 50.93C311.065 51.597 311.841 51.999 312.485 52.4011C313.129 52.6665 313.777 52.9358 314.293 53.2051C314.809 53.4701 315.453 53.7355 315.969 54.1376C316.485 54.5396 317.133 55.0738 317.774 55.8779C318.421 56.682 318.806 57.3451 318.937 58.1487C318.937 58.9527 318.937 59.7524 318.806 60.4199V60.4238V60.4233Z" fill="white"/>
<path d="M331.616 39.3086H316.383L333.375 56.8672V41.125L331.616 39.3086Z" fill="url(#paint6_linear_22_336)"/>
<path d="M330.625 41.125L333.375 41.125L314.625 21.75L314.625 25.125C314.625 33.9616 321.788 41.125 330.625 41.125Z" fill="#F9C499"/>
<g filter="url(#filter12_ii_22_336)">
<path fill-rule="evenodd" clip-rule="evenodd" d="M138.212 188.917C129.376 188.917 122.212 196.08 122.212 204.917V232.083C122.212 240.92 129.376 248.083 138.212 248.083H152.787C161.624 248.083 168.787 240.92 168.787 232.083V204.917C168.787 204.493 168.771 204.073 168.739 203.658L154.5 189.007C153.938 188.947 153.366 188.917 152.787 188.917H138.212Z" fill="#576A95"/>
</g>
<g filter="url(#filter13_dd_22_336)">
<path d="M149.453 225.867V233.901C149.453 234.165 149.402 234.427 149.304 234.67C149.206 234.914 149.062 235.135 148.88 235.322C148.513 235.699 148.016 235.91 147.497 235.91H143.503C142.985 235.91 142.487 235.699 142.12 235.322C141.938 235.136 141.794 234.914 141.696 234.67C141.598 234.427 141.547 234.165 141.547 233.901V225.867H149.453ZM147.497 230.47H143.503V234.504H147.497V230.47ZM149.388 217.832V221.866H145.459V217.832H149.388ZM145.508 189.508V193.576H149.453V197.644H145.508V201.41H149.453V205.478H145.508V209.496H149.453V213.513H145.508V217.531H141.547V213.513H145.492V209.495H141.547V205.478H145.492V201.41H141.547V197.342H145.492V193.576H141.547V189.508H145.508Z" fill="white"/>
</g>
<path d="M167.439 202.322H155.76L168.788 215.727V203.708L167.439 202.322Z" fill="url(#paint7_linear_22_336)"/>
<path d="M154.413 188.917L154.413 189.333C154.413 197.272 160.849 203.708 168.788 203.708L154.413 188.917Z" fill="#BBC3D4"/>
<g filter="url(#filter14_ii_22_336)">
<path fill-rule="evenodd" clip-rule="evenodd" d="M226.625 214.75C217.788 214.75 210.625 221.913 210.625 230.75V276.25C210.625 285.087 217.788 292.25 226.625 292.25H255.375C264.212 292.25 271.375 285.087 271.375 276.25V234.125L252.625 214.75H226.625Z" fill="#F6AD00"/>
</g>
<g filter="url(#filter15_dd_22_336)">
<path d="M224.015 270.912L230.849 260.533C230.936 260.4 231.051 260.289 231.185 260.206C231.318 260.124 231.468 260.074 231.623 260.058C231.778 260.042 231.934 260.062 232.081 260.115C232.228 260.169 232.361 260.255 232.472 260.368L236.989 264.94L246.898 248.891C246.996 248.731 247.132 248.601 247.294 248.512C247.455 248.423 247.635 248.378 247.818 248.383C248.001 248.387 248.179 248.44 248.336 248.536C248.493 248.633 248.624 248.769 248.715 248.933L261.027 270.982C261.121 271.149 261.17 271.338 261.17 271.531C261.17 271.724 261.121 271.913 261.028 272.08C260.934 272.247 260.8 272.386 260.638 272.482C260.477 272.579 260.293 272.629 260.106 272.629H224.894C224.7 272.629 224.51 272.575 224.344 272.472C224.179 272.369 224.043 272.222 223.953 272.045C223.862 271.868 223.82 271.669 223.831 271.47C223.842 271.27 223.905 271.077 224.014 270.912H224.015Z" fill="white"/>
<path d="M226.061 247.411C226.061 248.879 226.626 250.287 227.63 251.325C228.635 252.364 229.998 252.947 231.419 252.947C232.839 252.947 234.202 252.364 235.207 251.325C236.211 250.287 236.776 248.879 236.776 247.411C236.776 245.943 236.211 244.535 235.207 243.496C234.202 242.458 232.839 241.875 231.419 241.875C229.998 241.875 228.635 242.458 227.63 243.496C226.626 244.535 226.061 245.943 226.061 247.411Z" fill="white"/>
</g>
<path d="M269.616 232.309H254.383L271.375 249.867V234.125L269.616 232.309Z" fill="url(#paint8_linear_22_336)"/>
<path d="M268.625 234.125L271.375 234.125L252.625 214.75L252.625 218.125C252.625 226.962 259.788 234.125 268.625 234.125Z" fill="#FBDE99"/>
<defs>
<filter id="filter0_ii_22_336" x="145.9" y="7.91666" width="70.2" height="91.1667" filterUnits="userSpaceOnUse" color-interpolation-filters="sRGB">
<feFlood flood-opacity="0" result="BackgroundImageFix"/>
<feBlend mode="normal" in="SourceGraphic" in2="BackgroundImageFix" result="shape"/>
<feColorMatrix in="SourceAlpha" type="matrix" values="0 0 0 0 0 0 0 0 0 0 0 0 0 0 0 0 0 0 127 0" result="hardAlpha"/>
<feOffset dy="-2"/>
<feGaussianBlur stdDeviation="0.5"/>
<feComposite in2="hardAlpha" operator="arithmetic" k2="-1" k3="1"/>
<feColorMatrix type="matrix" values="0 0 0 0 0 0 0 0 0 0 0 0 0 0 0 0 0 0 0.3 0"/>
<feBlend mode="normal" in2="shape" result="effect1_innerShadow_22_336"/>
<feColorMatrix in="SourceAlpha" type="matrix" values="0 0 0 0 0 0 0 0 0 0 0 0 0 0 0 0 0 0 127 0" result="hardAlpha"/>
<feOffset dy="2"/>
<feGaussianBlur stdDeviation="0.5"/>
<feComposite in2="hardAlpha" operator="arithmetic" k2="-1" k3="1"/>
<feColorMatrix type="matrix" values="0 0 0 0 1 0 0 0 0 1 0 0 0 0 1 0 0 0 0.3 0"/>
<feBlend mode="normal" in2="effect1_innerShadow_22_336" result="effect2_innerShadow_22_336"/>
</filter>
<filter id="filter1_dd_22_336" x="161.583" y="45.2552" width="45.8333" height="40.5365" filterUnits="userSpaceOnUse" color-interpolation-filters="sRGB">
<feFlood flood-opacity="0" result="BackgroundImageFix"/>
<feColorMatrix in="SourceAlpha" type="matrix" values="0 0 0 0 0 0 0 0 0 0 0 0 0 0 0 0 0 0 127 0" result="hardAlpha"/>
<feOffset dx="4" dy="6"/>
<feGaussianBlur stdDeviation="2"/>
<feColorMatrix type="matrix" values="0 0 0 0 0 0 0 0 0 0 0 0 0 0 0 0 0 0 0.1 0"/>
<feBlend mode="normal" in2="BackgroundImageFix" result="effect1_dropShadow_22_336"/>
<feColorMatrix in="SourceAlpha" type="matrix" values="0 0 0 0 0 0 0 0 0 0 0 0 0 0 0 0 0 0 127 0" result="hardAlpha"/>
<feOffset/>
<feGaussianBlur stdDeviation="0.5"/>
<feColorMatrix type="matrix" values="0 0 0 0 0 0 0 0 0 0 0 0 0 0 0 0 0 0 0.4 0"/>
<feBlend mode="normal" in2="effect1_dropShadow_22_336" result="effect2_dropShadow_22_336"/>
<feBlend mode="normal" in="SourceGraphic" in2="effect2_dropShadow_22_336" result="shape"/>
</filter>
<filter id="filter2_ii_22_336" x="25.95" y="205.833" width="62.1001" height="80.3333" filterUnits="userSpaceOnUse" color-interpolation-filters="sRGB">
<feFlood flood-opacity="0" result="BackgroundImageFix"/>
<feBlend mode="normal" in="SourceGraphic" in2="BackgroundImageFix" result="shape"/>
<feColorMatrix in="SourceAlpha" type="matrix" values="0 0 0 0 0 0 0 0 0 0 0 0 0 0 0 0 0 0 127 0" result="hardAlpha"/>
<feOffset dy="-2"/>
<feGaussianBlur stdDeviation="0.5"/>
<feComposite in2="hardAlpha" operator="arithmetic" k2="-1" k3="1"/>
<feColorMatrix type="matrix" values="0 0 0 0 0 0 0 0 0 0 0 0 0 0 0 0 0 0 0.3 0"/>
<feBlend mode="normal" in2="shape" result="effect1_innerShadow_22_336"/>
<feColorMatrix in="SourceAlpha" type="matrix" values="0 0 0 0 0 0 0 0 0 0 0 0 0 0 0 0 0 0 127 0" result="hardAlpha"/>
<feOffset dy="2"/>
<feGaussianBlur stdDeviation="0.5"/>
<feComposite in2="hardAlpha" operator="arithmetic" k2="-1" k3="1"/>
<feColorMatrix type="matrix" values="0 0 0 0 1 0 0 0 0 1 0 0 0 0 1 0 0 0 0.3 0"/>
<feBlend mode="normal" in2="effect1_innerShadow_22_336" result="effect2_innerShadow_22_336"/>
</filter>
<filter id="filter3_dd_22_336" x="44.2605" y="235.208" width="32.4792" height="40.375" filterUnits="userSpaceOnUse" color-interpolation-filters="sRGB">
<feFlood flood-opacity="0" result="BackgroundImageFix"/>
<feColorMatrix in="SourceAlpha" type="matrix" values="0 0 0 0 0 0 0 0 0 0 0 0 0 0 0 0 0 0 127 0" result="hardAlpha"/>
<feOffset dx="4" dy="6"/>
<feGaussianBlur stdDeviation="2"/>
<feColorMatrix type="matrix" values="0 0 0 0 0 0 0 0 0 0 0 0 0 0 0 0 0 0 0.1 0"/>
<feBlend mode="normal" in2="BackgroundImageFix" result="effect1_dropShadow_22_336"/>
<feColorMatrix in="SourceAlpha" type="matrix" values="0 0 0 0 0 0 0 0 0 0 0 0 0 0 0 0 0 0 127 0" result="hardAlpha"/>
<feOffset/>
<feGaussianBlur stdDeviation="0.5"/>
<feColorMatrix type="matrix" values="0 0 0 0 0 0 0 0 0 0 0 0 0 0 0 0 0 0 0.4 0"/>
<feBlend mode="normal" in2="effect1_dropShadow_22_336" result="effect2_dropShadow_22_336"/>
<feBlend mode="normal" in="SourceGraphic" in2="effect2_dropShadow_22_336" result="shape"/>
</filter>
<filter id="filter4_ii_22_336" x="92.1001" y="76.75" width="37.8" height="49.5" filterUnits="userSpaceOnUse" color-interpolation-filters="sRGB">
<feFlood flood-opacity="0" result="BackgroundImageFix"/>
<feBlend mode="normal" in="SourceGraphic" in2="BackgroundImageFix" result="shape"/>
<feColorMatrix in="SourceAlpha" type="matrix" values="0 0 0 0 0 0 0 0 0 0 0 0 0 0 0 0 0 0 127 0" result="hardAlpha"/>
<feOffset dy="-2"/>
<feGaussianBlur stdDeviation="0.5"/>
<feComposite in2="hardAlpha" operator="arithmetic" k2="-1" k3="1"/>
<feColorMatrix type="matrix" values="0 0 0 0 0 0 0 0 0 0 0 0 0 0 0 0 0 0 0.3 0"/>
<feBlend mode="normal" in2="shape" result="effect1_innerShadow_22_336"/>
<feColorMatrix in="SourceAlpha" type="matrix" values="0 0 0 0 0 0 0 0 0 0 0 0 0 0 0 0 0 0 127 0" result="hardAlpha"/>
<feOffset dy="2"/>
<feGaussianBlur stdDeviation="0.5"/>
<feComposite in2="hardAlpha" operator="arithmetic" k2="-1" k3="1"/>
<feColorMatrix type="matrix" values="0 0 0 0 1 0 0 0 0 1 0 0 0 0 1 0 0 0 0.3 0"/>
<feBlend mode="normal" in2="effect1_innerShadow_22_336" result="effect2_innerShadow_22_336"/>
</filter>
<filter id="filter5_dd_22_336" x="102.271" y="94.5625" width="24.4583" height="28.8125" filterUnits="userSpaceOnUse" color-interpolation-filters="sRGB">
<feFlood flood-opacity="0" result="BackgroundImageFix"/>
<feColorMatrix in="SourceAlpha" type="matrix" values="0 0 0 0 0 0 0 0 0 0 0 0 0 0 0 0 0 0 127 0" result="hardAlpha"/>
<feOffset dx="4" dy="6"/>
<feGaussianBlur stdDeviation="2"/>
<feColorMatrix type="matrix" values="0 0 0 0 0 0 0 0 0 0 0 0 0 0 0 0 0 0 0.1 0"/>
<feBlend mode="normal" in2="BackgroundImageFix" result="effect1_dropShadow_22_336"/>
<feColorMatrix in="SourceAlpha" type="matrix" values="0 0 0 0 0 0 0 0 0 0 0 0 0 0 0 0 0 0 127 0" result="hardAlpha"/>
<feOffset/>
<feGaussianBlur stdDeviation="0.5"/>
<feColorMatrix type="matrix" values="0 0 0 0 0 0 0 0 0 0 0 0 0 0 0 0 0 0 0.4 0"/>
<feBlend mode="normal" in2="effect1_dropShadow_22_336" result="effect2_dropShadow_22_336"/>
<feBlend mode="normal" in="SourceGraphic" in2="effect2_dropShadow_22_336" result="shape"/>
</filter>
<filter id="filter6_ii_22_336" x="208.562" y="134.5" width="43.875" height="57" filterUnits="userSpaceOnUse" color-interpolation-filters="sRGB">
<feFlood flood-opacity="0" result="BackgroundImageFix"/>
<feBlend mode="normal" in="SourceGraphic" in2="BackgroundImageFix" result="shape"/>
<feColorMatrix in="SourceAlpha" type="matrix" values="0 0 0 0 0 0 0 0 0 0 0 0 0 0 0 0 0 0 127 0" result="hardAlpha"/>
<feOffset dy="-2"/>
<feGaussianBlur stdDeviation="0.5"/>
<feComposite in2="hardAlpha" operator="arithmetic" k2="-1" k3="1"/>
<feColorMatrix type="matrix" values="0 0 0 0 0 0 0 0 0 0 0 0 0 0 0 0 0 0 0.3 0"/>
<feBlend mode="normal" in2="shape" result="effect1_innerShadow_22_336"/>
<feColorMatrix in="SourceAlpha" type="matrix" values="0 0 0 0 0 0 0 0 0 0 0 0 0 0 0 0 0 0 127 0" result="hardAlpha"/>
<feOffset dy="2"/>
<feGaussianBlur stdDeviation="0.5"/>
<feComposite in2="hardAlpha" operator="arithmetic" k2="-1" k3="1"/>
<feColorMatrix type="matrix" values="0 0 0 0 1 0 0 0 0 1 0 0 0 0 1 0 0 0 0.3 0"/>
<feBlend mode="normal" in2="effect1_innerShadow_22_336" result="effect2_innerShadow_22_336"/>
</filter>
<filter id="filter7_dd_22_336" x="223.508" y="155.125" width="24.2344" height="31.625" filterUnits="userSpaceOnUse" color-interpolation-filters="sRGB">
<feFlood flood-opacity="0" result="BackgroundImageFix"/>
<feColorMatrix in="SourceAlpha" type="matrix" values="0 0 0 0 0 0 0 0 0 0 0 0 0 0 0 0 0 0 127 0" result="hardAlpha"/>
<feOffset dx="4" dy="6"/>
<feGaussianBlur stdDeviation="2"/>
<feColorMatrix type="matrix" values="0 0 0 0 0 0 0 0 0 0 0 0 0 0 0 0 0 0 0.1 0"/>
<feBlend mode="normal" in2="BackgroundImageFix" result="effect1_dropShadow_22_336"/>
<feColorMatrix in="SourceAlpha" type="matrix" values="0 0 0 0 0 0 0 0 0 0 0 0 0 0 0 0 0 0 127 0" result="hardAlpha"/>
<feOffset/>
<feGaussianBlur stdDeviation="0.5"/>
<feColorMatrix type="matrix" values="0 0 0 0 0 0 0 0 0 0 0 0 0 0 0 0 0 0 0.4 0"/>
<feBlend mode="normal" in2="effect1_dropShadow_22_336" result="effect2_dropShadow_22_336"/>
<feBlend mode="normal" in="SourceGraphic" in2="effect2_dropShadow_22_336" result="shape"/>
</filter>
<filter id="filter8_ii_22_336" x="297.212" y="149.833" width="46.575" height="60.3333" filterUnits="userSpaceOnUse" color-interpolation-filters="sRGB">
<feFlood flood-opacity="0" result="BackgroundImageFix"/>
<feBlend mode="normal" in="SourceGraphic" in2="BackgroundImageFix" result="shape"/>
<feColorMatrix in="SourceAlpha" type="matrix" values="0 0 0 0 0 0 0 0 0 0 0 0 0 0 0 0 0 0 127 0" result="hardAlpha"/>
<feOffset dy="-2"/>
<feGaussianBlur stdDeviation="0.5"/>
<feComposite in2="hardAlpha" operator="arithmetic" k2="-1" k3="1"/>
<feColorMatrix type="matrix" values="0 0 0 0 0 0 0 0 0 0 0 0 0 0 0 0 0 0 0.3 0"/>
<feBlend mode="normal" in2="shape" result="effect1_innerShadow_22_336"/>
<feColorMatrix in="SourceAlpha" type="matrix" values="0 0 0 0 0 0 0 0 0 0 0 0 0 0 0 0 0 0 127 0" result="hardAlpha"/>
<feOffset dy="2"/>
<feGaussianBlur stdDeviation="0.5"/>
<feComposite in2="hardAlpha" operator="arithmetic" k2="-1" k3="1"/>
<feColorMatrix type="matrix" values="0 0 0 0 1 0 0 0 0 1 0 0 0 0 1 0 0 0 0.3 0"/>
<feBlend mode="normal" in2="effect1_innerShadow_22_336" result="effect2_innerShadow_22_336"/>
</filter>
<filter id="filter9_dd_22_336" x="311.163" y="169.521" width="29.1248" height="34.6981" filterUnits="userSpaceOnUse" color-interpolation-filters="sRGB">
<feFlood flood-opacity="0" result="BackgroundImageFix"/>
<feColorMatrix in="SourceAlpha" type="matrix" values="0 0 0 0 0 0 0 0 0 0 0 0 0 0 0 0 0 0 127 0" result="hardAlpha"/>
<feOffset dx="4" dy="6"/>
<feGaussianBlur stdDeviation="2"/>
<feColorMatrix type="matrix" values="0 0 0 0 0 0 0 0 0 0 0 0 0 0 0 0 0 0 0.1 0"/>
<feBlend mode="normal" in2="BackgroundImageFix" result="effect1_dropShadow_22_336"/>
<feColorMatrix in="SourceAlpha" type="matrix" values="0 0 0 0 0 0 0 0 0 0 0 0 0 0 0 0 0 0 127 0" result="hardAlpha"/>
<feOffset/>
<feGaussianBlur stdDeviation="0.5"/>
<feColorMatrix type="matrix" values="0 0 0 0 0 0 0 0 0 0 0 0 0 0 0 0 0 0 0.4 0"/>
<feBlend mode="normal" in2="effect1_dropShadow_22_336" result="effect2_dropShadow_22_336"/>
<feBlend mode="normal" in="SourceGraphic" in2="effect2_dropShadow_22_336" result="shape"/>
</filter>
<filter id="filter10_ii_22_336" x="10.8875" y="23.6667" width="45.2251" height="58.6667" filterUnits="userSpaceOnUse" color-interpolation-filters="sRGB">
<feFlood flood-opacity="0" result="BackgroundImageFix"/>
<feBlend mode="normal" in="SourceGraphic" in2="BackgroundImageFix" result="shape"/>
<feColorMatrix in="SourceAlpha" type="matrix" values="0 0 0 0 0 0 0 0 0 0 0 0 0 0 0 0 0 0 127 0" result="hardAlpha"/>
<feOffset dy="-2"/>
<feGaussianBlur stdDeviation="0.5"/>
<feComposite in2="hardAlpha" operator="arithmetic" k2="-1" k3="1"/>
<feColorMatrix type="matrix" values="0 0 0 0 0 0 0 0 0 0 0 0 0 0 0 0 0 0 0.3 0"/>
<feBlend mode="normal" in2="shape" result="effect1_innerShadow_22_336"/>
<feColorMatrix in="SourceAlpha" type="matrix" values="0 0 0 0 0 0 0 0 0 0 0 0 0 0 0 0 0 0 127 0" result="hardAlpha"/>
<feOffset dy="2"/>
<feGaussianBlur stdDeviation="0.5"/>
<feComposite in2="hardAlpha" operator="arithmetic" k2="-1" k3="1"/>
<feColorMatrix type="matrix" values="0 0 0 0 1 0 0 0 0 1 0 0 0 0 1 0 0 0 0.3 0"/>
<feBlend mode="normal" in2="effect1_innerShadow_22_336" result="effect2_innerShadow_22_336"/>
</filter>
<filter id="filter11_ii_22_336" x="272.625" y="20.75" width="60.75" height="79.5" filterUnits="userSpaceOnUse" color-interpolation-filters="sRGB">
<feFlood flood-opacity="0" result="BackgroundImageFix"/>
<feBlend mode="normal" in="SourceGraphic" in2="BackgroundImageFix" result="shape"/>
<feColorMatrix in="SourceAlpha" type="matrix" values="0 0 0 0 0 0 0 0 0 0 0 0 0 0 0 0 0 0 127 0" result="hardAlpha"/>
<feOffset dy="-2"/>
<feGaussianBlur stdDeviation="0.5"/>
<feComposite in2="hardAlpha" operator="arithmetic" k2="-1" k3="1"/>
<feColorMatrix type="matrix" values="0 0 0 0 0 0 0 0 0 0 0 0 0 0 0 0 0 0 0.3 0"/>
<feBlend mode="normal" in2="shape" result="effect1_innerShadow_22_336"/>
<feColorMatrix in="SourceAlpha" type="matrix" values="0 0 0 0 0 0 0 0 0 0 0 0 0 0 0 0 0 0 127 0" result="hardAlpha"/>
<feOffset dy="2"/>
<feGaussianBlur stdDeviation="0.5"/>
<feComposite in2="hardAlpha" operator="arithmetic" k2="-1" k3="1"/>
<feColorMatrix type="matrix" values="0 0 0 0 1 0 0 0 0 1 0 0 0 0 1 0 0 0 0.3 0"/>
<feBlend mode="normal" in2="effect1_innerShadow_22_336" result="effect2_innerShadow_22_336"/>
</filter>
<filter id="filter12_ii_22_336" x="122.212" y="187.917" width="46.575" height="61.1667" filterUnits="userSpaceOnUse" color-interpolation-filters="sRGB">
<feFlood flood-opacity="0" result="BackgroundImageFix"/>
<feBlend mode="normal" in="SourceGraphic" in2="BackgroundImageFix" result="shape"/>
<feColorMatrix in="SourceAlpha" type="matrix" values="0 0 0 0 0 0 0 0 0 0 0 0 0 0 0 0 0 0 127 0" result="hardAlpha"/>
<feOffset dy="-2"/>
<feGaussianBlur stdDeviation="0.5"/>
<feComposite in2="hardAlpha" operator="arithmetic" k2="-1" k3="1"/>
<feColorMatrix type="matrix" values="0 0 0 0 0 0 0 0 0 0 0 0 0 0 0 0 0 0 0.3 0"/>
<feBlend mode="normal" in2="shape" result="effect1_innerShadow_22_336"/>
<feColorMatrix in="SourceAlpha" type="matrix" values="0 0 0 0 0 0 0 0 0 0 0 0 0 0 0 0 0 0 127 0" result="hardAlpha"/>
<feOffset dy="2"/>
<feGaussianBlur stdDeviation="0.5"/>
<feComposite in2="hardAlpha" operator="arithmetic" k2="-1" k3="1"/>
<feColorMatrix type="matrix" values="0 0 0 0 1 0 0 0 0 1 0 0 0 0 1 0 0 0 0.3 0"/>
<feBlend mode="normal" in2="effect1_innerShadow_22_336" result="effect2_innerShadow_22_336"/>
</filter>
<filter id="filter13_dd_22_336" x="140.547" y="188.508" width="16.9062" height="57.4018" filterUnits="userSpaceOnUse" color-interpolation-filters="sRGB">
<feFlood flood-opacity="0" result="BackgroundImageFix"/>
<feColorMatrix in="SourceAlpha" type="matrix" values="0 0 0 0 0 0 0 0 0 0 0 0 0 0 0 0 0 0 127 0" result="hardAlpha"/>
<feOffset dx="4" dy="6"/>
<feGaussianBlur stdDeviation="2"/>
<feColorMatrix type="matrix" values="0 0 0 0 0 0 0 0 0 0 0 0 0 0 0 0 0 0 0.1 0"/>
<feBlend mode="normal" in2="BackgroundImageFix" result="effect1_dropShadow_22_336"/>
<feColorMatrix in="SourceAlpha" type="matrix" values="0 0 0 0 0 0 0 0 0 0 0 0 0 0 0 0 0 0 127 0" result="hardAlpha"/>
<feOffset/>
<feGaussianBlur stdDeviation="0.5"/>
<feColorMatrix type="matrix" values="0 0 0 0 0 0 0 0 0 0 0 0 0 0 0 0 0 0 0.4 0"/>
<feBlend mode="normal" in2="effect1_dropShadow_22_336" result="effect2_dropShadow_22_336"/>
<feBlend mode="normal" in="SourceGraphic" in2="effect2_dropShadow_22_336" result="shape"/>
</filter>
<filter id="filter14_ii_22_336" x="210.625" y="213.75" width="60.75" height="79.5" filterUnits="userSpaceOnUse" color-interpolation-filters="sRGB">
<feFlood flood-opacity="0" result="BackgroundImageFix"/>
<feBlend mode="normal" in="SourceGraphic" in2="BackgroundImageFix" result="shape"/>
<feColorMatrix in="SourceAlpha" type="matrix" values="0 0 0 0 0 0 0 0 0 0 0 0 0 0 0 0 0 0 127 0" result="hardAlpha"/>
<feOffset dy="-2"/>
<feGaussianBlur stdDeviation="0.5"/>
<feComposite in2="hardAlpha" operator="arithmetic" k2="-1" k3="1"/>
<feColorMatrix type="matrix" values="0 0 0 0 0 0 0 0 0 0 0 0 0 0 0 0 0 0 0.3 0"/>
<feBlend mode="normal" in2="shape" result="effect1_innerShadow_22_336"/>
<feColorMatrix in="SourceAlpha" type="matrix" values="0 0 0 0 0 0 0 0 0 0 0 0 0 0 0 0 0 0 127 0" result="hardAlpha"/>
<feOffset dy="2"/>
<feGaussianBlur stdDeviation="0.5"/>
<feComposite in2="hardAlpha" operator="arithmetic" k2="-1" k3="1"/>
<feColorMatrix type="matrix" values="0 0 0 0 1 0 0 0 0 1 0 0 0 0 1 0 0 0 0.3 0"/>
<feBlend mode="normal" in2="effect1_innerShadow_22_336" result="effect2_innerShadow_22_336"/>
</filter>
<filter id="filter15_dd_22_336" x="222.829" y="240.875" width="46.3408" height="41.7539" filterUnits="userSpaceOnUse" color-interpolation-filters="sRGB">
<feFlood flood-opacity="0" result="BackgroundImageFix"/>
<feColorMatrix in="SourceAlpha" type="matrix" values="0 0 0 0 0 0 0 0 0 0 0 0 0 0 0 0 0 0 127 0" result="hardAlpha"/>
<feOffset dx="4" dy="6"/>
<feGaussianBlur stdDeviation="2"/>
<feColorMatrix type="matrix" values="0 0 0 0 0 0 0 0 0 0 0 0 0 0 0 0 0 0 0.1 0"/>
<feBlend mode="normal" in2="BackgroundImageFix" result="effect1_dropShadow_22_336"/>
<feColorMatrix in="SourceAlpha" type="matrix" values="0 0 0 0 0 0 0 0 0 0 0 0 0 0 0 0 0 0 127 0" result="hardAlpha"/>
<feOffset/>
<feGaussianBlur stdDeviation="0.5"/>
<feColorMatrix type="matrix" values="0 0 0 0 0 0 0 0 0 0 0 0 0 0 0 0 0 0 0.4 0"/>
<feBlend mode="normal" in2="effect1_dropShadow_22_336" result="effect2_dropShadow_22_336"/>
<feBlend mode="normal" in="SourceGraphic" in2="effect2_dropShadow_22_336" result="shape"/>
</filter>
<linearGradient id="paint0_linear_22_336" x1="200.866" y1="24.5905" x2="221.059" y2="44.218" gradientUnits="userSpaceOnUse">
<stop stop-opacity="0.2"/>
<stop offset="1" stop-opacity="0"/>
</linearGradient>
<linearGradient id="paint1_linear_22_336" x1="70.6802" y1="224.288" x2="92.2108" y2="237.928" gradientUnits="userSpaceOnUse">
<stop stop-opacity="0.2"/>
<stop offset="1" stop-opacity="0"/>
</linearGradient>
<linearGradient id="paint2_linear_22_336" x1="121.697" y1="86.0996" x2="132.457" y2="96.6709" gradientUnits="userSpaceOnUse">
<stop stop-opacity="0.2"/>
<stop offset="1" stop-opacity="0"/>
</linearGradient>
<linearGradient id="paint3_linear_22_336" x1="242.916" y1="145.168" x2="255.375" y2="157.439" gradientUnits="userSpaceOnUse">
<stop stop-opacity="0.2"/>
<stop offset="1" stop-opacity="0"/>
</linearGradient>
<linearGradient id="paint4_linear_22_336" x1="333.68" y1="161.087" x2="346.895" y2="174.113" gradientUnits="userSpaceOnUse">
<stop stop-opacity="0.2"/>
<stop offset="1" stop-opacity="0"/>
</linearGradient>
<linearGradient id="paint5_linear_22_336" x1="46.2979" y1="34.6276" x2="59.1351" y2="47.276" gradientUnits="userSpaceOnUse">
<stop stop-opacity="0.2"/>
<stop offset="1" stop-opacity="0"/>
</linearGradient>
<linearGradient id="paint6_linear_22_336" x1="320.191" y1="35.373" x2="337.741" y2="52.3561" gradientUnits="userSpaceOnUse">
<stop stop-opacity="0.2"/>
<stop offset="1" stop-opacity="0"/>
</linearGradient>
<linearGradient id="paint7_linear_22_336" x1="158.68" y1="199.317" x2="172.08" y2="212.339" gradientUnits="userSpaceOnUse">
<stop stop-opacity="0.2"/>
<stop offset="1" stop-opacity="0"/>
</linearGradient>
<linearGradient id="paint8_linear_22_336" x1="258.191" y1="228.373" x2="275.741" y2="245.356" gradientUnits="userSpaceOnUse">
<stop stop-opacity="0.2"/>
<stop offset="1" stop-opacity="0"/>
</linearGradient>
</defs>
</svg>
